<?xml version="1.0" encoding="UTF-8"?>
<svg width="700pt" height="700pt" version="1.1" viewBox="0 0 700 700" xmlns="http://www.w3.org/2000/svg" xmlns:xlink="http://www.w3.org/1999/xlink">
 <defs>
  <symbol id="u" overflow="visible">
   <path d="m16.5-0.98438c-0.85547 0.4375-1.7461 0.76562-2.6719 0.98438-0.91797 0.22656-1.875 0.34375-2.875 0.34375-2.9922 0-5.3594-0.83203-7.1094-2.5-1.75-1.6758-2.625-3.9414-2.625-6.7969 0-2.875 0.875-5.1445 2.625-6.8125 1.75-1.6758 4.1172-2.5156 7.1094-2.5156 1 0 1.957 0.11719 2.875 0.34375 0.92578 0.21875 1.8164 0.55469 2.6719 1v3.7188c-0.86719-0.59375-1.7148-1.0234-2.5469-1.2969-0.83594-0.26953-1.7109-0.40625-2.625-0.40625-1.6562 0-2.9609 0.53125-3.9062 1.5938-0.9375 1.0547-1.4062 2.5117-1.4062 4.375 0 1.8438 0.46875 3.2969 1.4062 4.3594 0.94531 1.0625 2.25 1.5938 3.9062 1.5938 0.91406 0 1.7891-0.13281 2.625-0.40625 0.83203-0.28125 1.6797-0.71094 2.5469-1.2969z"/>
  </symbol>
  <symbol id="d" overflow="visible">
   <path d="m12.078-9.7969c-0.38672-0.17578-0.76562-0.30469-1.1406-0.39062-0.36719-0.082031-0.73438-0.125-1.1094-0.125-1.1055 0-1.9609 0.35547-2.5625 1.0625-0.59375 0.71094-0.89062 1.7266-0.89062 3.0469v6.2031h-4.3125v-13.469h4.3125v2.2188c0.55078-0.88281 1.1875-1.5312 1.9062-1.9375s1.5781-0.60938 2.5781-0.60938c0.14453 0 0.30078 0.011719 0.46875 0.03125 0.16406 0.011719 0.41016 0.039063 0.73438 0.078125z"/>
  </symbol>
  <symbol id="a" overflow="visible">
   <path d="m15.516-6.7656v1.2188h-10.062c0.10156 1.0117 0.46875 1.7734 1.0938 2.2812 0.625 0.5 1.4922 0.75 2.6094 0.75 0.90625 0 1.832-0.12891 2.7812-0.39062 0.95703-0.26953 1.9375-0.67969 2.9375-1.2344v3.3281c-1.0234 0.38672-2.043 0.67188-3.0625 0.85938-1.0117 0.19531-2.0273 0.29688-3.0469 0.29688-2.4375 0-4.3359-0.61328-5.6875-1.8438-1.3438-1.2383-2.0156-2.9766-2.0156-5.2188 0-2.1953 0.66016-3.9258 1.9844-5.1875 1.3203-1.2578 3.1484-1.8906 5.4844-1.8906 2.1133 0 3.8047 0.64062 5.0781 1.9219 1.2695 1.2734 1.9062 2.9766 1.9062 5.1094zm-4.4219-1.4375c0-0.8125-0.24219-1.4688-0.71875-1.9688-0.48047-0.50781-1.1055-0.76562-1.875-0.76562-0.83594 0-1.5117 0.24219-2.0312 0.71875-0.52344 0.46875-0.84375 1.1406-0.96875 2.0156z"/>
  </symbol>
  <symbol id="k" overflow="visible">
   <path d="m8.1094-6.0625c-0.90625 0-1.5859 0.15625-2.0312 0.46875-0.44922 0.30469-0.67188 0.75-0.67188 1.3438 0 0.54297 0.17969 0.96875 0.54688 1.2812 0.36328 0.30469 0.86719 0.45312 1.5156 0.45312 0.8125 0 1.4922-0.28516 2.0469-0.85938 0.55078-0.58203 0.82812-1.3125 0.82812-2.1875v-0.5zm6.5781-1.625v7.6875h-4.3438v-2c-0.58594 0.82422-1.2344 1.4219-1.9531 1.7969-0.71875 0.36328-1.5938 0.54688-2.625 0.54688-1.3984 0-2.5312-0.40625-3.4062-1.2188-0.86719-0.8125-1.2969-1.8672-1.2969-3.1719 0-1.5703 0.53906-2.7266 1.625-3.4688 1.082-0.73828 2.7852-1.1094 5.1094-1.1094h2.5469v-0.32812c0-0.6875-0.27344-1.1875-0.8125-1.5-0.53125-0.32031-1.3711-0.48438-2.5156-0.48438-0.91797 0-1.7734 0.09375-2.5625 0.28125-0.79297 0.1875-1.5312 0.46484-2.2188 0.82812v-3.2812c0.92578-0.21875 1.8516-0.38281 2.7812-0.5 0.92578-0.125 1.8516-0.1875 2.7812-0.1875 2.4375 0 4.1914 0.48047 5.2656 1.4375 1.082 0.96094 1.625 2.5156 1.625 4.6719z"/>
  </symbol>
  <symbol id="c" overflow="visible">
   <path d="m6.7656-17.297v3.8281h4.4375v3.0781h-4.4375v5.7188c0 0.625 0.125 1.0469 0.375 1.2656s0.74219 0.32812 1.4844 0.32812h2.2031v3.0781h-3.6875c-1.6992 0-2.9023-0.35156-3.6094-1.0625-0.71094-0.70703-1.0625-1.9102-1.0625-3.6094v-5.7188h-2.1406v-3.0781h2.1406v-3.8281z"/>
  </symbol>
  <symbol id="j" overflow="visible">
   <path d="m11.234-11.5v-7.2031h4.3281v18.703h-4.3281v-1.9531c-0.59375 0.80469-1.25 1.3867-1.9688 1.75-0.71094 0.36328-1.5312 0.54688-2.4688 0.54688-1.668 0-3.0312-0.65625-4.0938-1.9688-1.0625-1.3203-1.5938-3.0195-1.5938-5.0938 0-2.0703 0.53125-3.7695 1.5938-5.0938 1.0625-1.3203 2.4258-1.9844 4.0938-1.9844 0.92578 0 1.75 0.1875 2.4688 0.5625s1.375 0.95312 1.9688 1.7344zm-2.8438 8.7188c0.92578 0 1.6289-0.33203 2.1094-1 0.48828-0.67578 0.73438-1.6562 0.73438-2.9375s-0.24609-2.2578-0.73438-2.9375c-0.48047-0.67578-1.1836-1.0156-2.1094-1.0156-0.91797 0-1.6211 0.33984-2.1094 1.0156-0.48047 0.67969-0.71875 1.6562-0.71875 2.9375s0.23828 2.2617 0.71875 2.9375c0.48828 0.66797 1.1914 1 2.1094 1z"/>
  </symbol>
  <symbol id="i" overflow="visible">
   <path d="m9.2344-2.7812c0.91406 0 1.6172-0.33203 2.1094-1 0.48828-0.67578 0.73438-1.6562 0.73438-2.9375s-0.24609-2.2578-0.73438-2.9375c-0.49219-0.67578-1.1953-1.0156-2.1094-1.0156-0.91797 0-1.625 0.33984-2.125 1.0156-0.49219 0.67969-0.73438 1.6562-0.73438 2.9375 0 1.2734 0.24219 2.2461 0.73438 2.9219 0.5 0.67969 1.207 1.0156 2.125 1.0156zm-2.8594-8.7188c0.59375-0.78125 1.25-1.3594 1.9688-1.7344s1.5469-0.5625 2.4844-0.5625c1.6641 0 3.0312 0.66406 4.0938 1.9844 1.0625 1.3242 1.5938 3.0234 1.5938 5.0938 0 2.0742-0.53125 3.7734-1.5938 5.0938-1.0625 1.3125-2.4297 1.9688-4.0938 1.9688-0.9375 0-1.7656-0.18359-2.4844-0.54688-0.71875-0.375-1.375-0.95703-1.9688-1.75v1.9531h-4.3125v-18.703h4.3125z"/>
  </symbol>
  <symbol id="h" overflow="visible">
   <path d="m0.29688-13.469h4.3125l3.6094 9.1406 3.0781-9.1406h4.3125l-5.6719 14.75c-0.5625 1.4883-1.2266 2.5312-1.9844 3.125-0.76172 0.60156-1.7617 0.90625-3 0.90625h-2.4844v-2.8281h1.3438c0.72656 0 1.2578-0.11719 1.5938-0.34375 0.33203-0.23047 0.59375-0.64844 0.78125-1.25l0.10938-0.375z"/>
  </symbol>
  <symbol id="g" overflow="visible">
   <path d="m9.4531-11c0.72656 0 1.2812-0.16016 1.6562-0.48438 0.375-0.32031 0.5625-0.79688 0.5625-1.4219 0-0.61328-0.1875-1.082-0.5625-1.4062-0.375-0.32031-0.92969-0.48438-1.6562-0.48438h-2.5625v3.7969zm0.15625 7.8438c0.92578 0 1.625-0.19141 2.0938-0.57812 0.46875-0.39453 0.70312-0.98828 0.70312-1.7812 0-0.78125-0.23438-1.3633-0.70312-1.75-0.46094-0.39453-1.1562-0.59375-2.0938-0.59375h-2.7188v4.7031zm4.2969-6.4531c1 0.29297 1.7695 0.82812 2.3125 1.6094 0.53906 0.77344 0.8125 1.7266 0.8125 2.8594 0 1.7305-0.58594 3.0234-1.75 3.875-1.168 0.84375-2.9492 1.2656-5.3438 1.2656h-7.6719v-17.953h6.9375c2.5 0 4.3047 0.38281 5.4219 1.1406 1.1133 0.75 1.6719 1.9531 1.6719 3.6094 0 0.875-0.20312 1.6211-0.60938 2.2344-0.40625 0.61719-1 1.0703-1.7812 1.3594z"/>
  </symbol>
  <symbol id="b" overflow="visible">
   <path d="m8.4844-10.719c-0.96094 0-1.6875 0.34375-2.1875 1.0312s-0.75 1.6797-0.75 2.9688c0 1.293 0.25 2.2812 0.75 2.9688 0.5 0.67969 1.2266 1.0156 2.1875 1.0156 0.9375 0 1.6484-0.33594 2.1406-1.0156 0.5-0.6875 0.75-1.6758 0.75-2.9688 0-1.2891-0.25-2.2812-0.75-2.9688-0.49219-0.6875-1.2031-1.0312-2.1406-1.0312zm0-3.0781c2.3125 0 4.1172 0.625 5.4219 1.875 1.3008 1.25 1.9531 2.9844 1.9531 5.2031 0 2.2109-0.65234 3.9375-1.9531 5.1875-1.3047 1.25-3.1094 1.875-5.4219 1.875-2.3359 0-4.1562-0.625-5.4688-1.875-1.3047-1.25-1.9531-2.9766-1.9531-5.1875 0-2.2188 0.64844-3.9531 1.9531-5.2031 1.3125-1.25 3.1328-1.875 5.4688-1.875z"/>
  </symbol>
  <symbol id="f" overflow="visible">
   <path d="m15.609-8.2031v8.2031h-4.3281v-6.2812c0-1.1562-0.027344-1.9531-0.078125-2.3906-0.054687-0.44531-0.14062-0.77344-0.26562-0.98438-0.17969-0.28125-0.41406-0.5-0.70312-0.65625-0.28125-0.15625-0.60547-0.23438-0.96875-0.23438-0.90625 0-1.6172 0.35156-2.125 1.0469-0.51172 0.6875-0.76562 1.6484-0.76562 2.875v6.625h-4.3125v-13.469h4.3125v1.9688c0.64453-0.78125 1.332-1.3594 2.0625-1.7344 0.72656-0.375 1.5352-0.5625 2.4219-0.5625 1.5508 0 2.7266 0.48047 3.5312 1.4375 0.8125 0.94922 1.2188 2.3359 1.2188 4.1562z"/>
  </symbol>
  <symbol id="t" overflow="visible">
   <path d="m11.234-2.2812c-0.59375 0.78125-1.25 1.3594-1.9688 1.7344-0.71094 0.36719-1.5312 0.54688-2.4688 0.54688-1.6484 0-3.0078-0.64453-4.0781-1.9375-1.0742-1.3008-1.6094-2.9531-1.6094-4.9531 0-2.0078 0.53516-3.6562 1.6094-4.9375 1.0703-1.2891 2.4297-1.9375 4.0781-1.9375 0.9375 0 1.7578 0.1875 2.4688 0.5625 0.71875 0.36719 1.375 0.94531 1.9688 1.7344v-2h4.3281v12.109c0 2.1641-0.6875 3.8164-2.0625 4.9531-1.3672 1.1445-3.3438 1.7188-5.9375 1.7188-0.84375 0-1.6641-0.0625-2.4531-0.1875-0.78125-0.125-1.5703-0.32422-2.3594-0.59375v-3.3594c0.75781 0.4375 1.5 0.75781 2.2188 0.96875 0.71875 0.21875 1.4414 0.32812 2.1719 0.32812 1.4141 0 2.4531-0.3125 3.1094-0.9375 0.65625-0.61719 0.98438-1.5781 0.98438-2.8906zm-2.8438-8.3906c-0.88672 0-1.5781 0.33594-2.0781 1-0.5 0.65625-0.75 1.5859-0.75 2.7812 0 1.2422 0.23828 2.1797 0.71875 2.8125 0.48828 0.63672 1.1914 0.95312 2.1094 0.95312 0.89453 0 1.5938-0.32812 2.0938-0.98438s0.75-1.582 0.75-2.7812c0-1.1953-0.25-2.125-0.75-2.7812-0.5-0.66406-1.1992-1-2.0938-1z"/>
  </symbol>
  <symbol id="s" overflow="visible">
   <path d="m2.0625-18.703h4.3125v18.703h-4.3125z"/>
  </symbol>
  <symbol id="e" overflow="visible">
   <path d="m14.547-11.234c0.53906-0.83203 1.1875-1.4688 1.9375-1.9062s1.5781-0.65625 2.4844-0.65625c1.5391 0 2.7188 0.48047 3.5312 1.4375 0.8125 0.94922 1.2188 2.3359 1.2188 4.1562v8.2031h-4.3438v-7.0156c0.007812-0.10156 0.015625-0.21094 0.015625-0.32812 0.007813-0.11328 0.015625-0.27344 0.015625-0.48438 0-0.95703-0.14062-1.6484-0.42188-2.0781-0.28125-0.42578-0.73438-0.64062-1.3594-0.64062-0.8125 0-1.4453 0.33984-1.8906 1.0156-0.44922 0.66797-0.67969 1.6406-0.6875 2.9219v6.6094h-4.3281v-7.0156c0-1.5-0.13281-2.4609-0.39062-2.8906-0.26172-0.42578-0.71875-0.64062-1.375-0.64062-0.82422 0-1.4609 0.33984-1.9062 1.0156-0.44922 0.67969-0.67188 1.6484-0.67188 2.9062v6.625h-4.3281v-13.469h4.3281v1.9688c0.53125-0.75781 1.1328-1.332 1.8125-1.7188 0.6875-0.38281 1.4414-0.57812 2.2656-0.57812 0.9375 0 1.7578 0.23047 2.4688 0.6875 0.71875 0.44922 1.2578 1.0742 1.625 1.875z"/>
  </symbol>
  <symbol id="r" overflow="visible">
   <path d="m10.938-18.703v2.8125h-2.3906c-0.60547 0-1.0312 0.11719-1.2812 0.34375-0.24219 0.21875-0.35938 0.60156-0.35938 1.1406v0.9375h3.6875v3.0781h-3.6875v10.391h-4.2969v-10.391h-2.1406v-3.0781h2.1406v-0.9375c0-1.4688 0.40625-2.5508 1.2188-3.25 0.82031-0.69531 2.0938-1.0469 3.8125-1.0469z"/>
  </symbol>
  <symbol id="q" overflow="visible">
   <path d="m15.609-8.2031v8.2031h-4.3281v-6.25c0-1.1758-0.027344-1.9844-0.078125-2.4219-0.054687-0.44531-0.14062-0.77344-0.26562-0.98438-0.17969-0.28125-0.41406-0.5-0.70312-0.65625-0.28125-0.15625-0.60547-0.23438-0.96875-0.23438-0.90625 0-1.6172 0.35156-2.125 1.0469-0.51172 0.6875-0.76562 1.6484-0.76562 2.875v6.625h-4.3125v-18.703h4.3125v7.2031c0.64453-0.78125 1.332-1.3594 2.0625-1.7344 0.72656-0.375 1.5352-0.5625 2.4219-0.5625 1.5508 0 2.7266 0.48047 3.5312 1.4375 0.8125 0.94922 1.2188 2.3359 1.2188 4.1562z"/>
  </symbol>
  <symbol id="p" overflow="visible">
   <path d="m2.2656-17.953h5.1719l6.5156 12.312v-12.312h4.3906v17.953h-5.1719l-6.5156-12.312v12.312h-4.3906z"/>
  </symbol>
  <symbol id="o" overflow="visible">
   <path d="m1.9219-5.25v-8.2188h4.3281v1.3438c0 0.73047-0.007812 1.6484-0.015625 2.75v2.2031c0 1.0859 0.023437 1.8672 0.078125 2.3438 0.050781 0.48047 0.14453 0.82812 0.28125 1.0469 0.17578 0.28125 0.40625 0.5 0.6875 0.65625 0.28906 0.14844 0.61719 0.21875 0.98438 0.21875 0.90625 0 1.6133-0.34375 2.125-1.0312 0.50781-0.69531 0.76562-1.6562 0.76562-2.875v-6.6562h4.3125v13.469h-4.3125v-1.9531c-0.64844 0.79297-1.3359 1.375-2.0625 1.75-0.71875 0.36328-1.5156 0.54688-2.3906 0.54688-1.5625 0-2.75-0.47266-3.5625-1.4219-0.8125-0.95703-1.2188-2.3477-1.2188-4.1719z"/>
  </symbol>
  <symbol id="n" overflow="visible">
   <path d="m2.2656-17.953h7.6719c2.2891 0 4.0469 0.51172 5.2656 1.5312 1.2188 1.0117 1.8281 2.4531 1.8281 4.3281 0 1.8867-0.60938 3.3359-1.8281 4.3438-1.2188 1.0117-2.9766 1.5156-5.2656 1.5156h-3.0469v6.2344h-4.625zm4.625 3.3594v5.0156h2.5625c0.89453 0 1.5859-0.21875 2.0781-0.65625 0.48828-0.4375 0.73438-1.0547 0.73438-1.8594 0-0.80078-0.24609-1.4141-0.73438-1.8438-0.49219-0.4375-1.1836-0.65625-2.0781-0.65625z"/>
  </symbol>
  <symbol id="m" overflow="visible">
   <path d="m2.0625-13.469h4.3125v13.234c0 1.8008-0.43359 3.1758-1.2969 4.125-0.86719 0.94531-2.1211 1.4219-3.7656 1.4219h-2.125v-2.8281h0.73438c0.82031 0 1.3828-0.1875 1.6875-0.5625 0.30078-0.36719 0.45312-1.0859 0.45312-2.1562zm0-5.2344h4.3125v3.5h-4.3125z"/>
  </symbol>
  <symbol id="l" overflow="visible">
   <path d="m12.953-13.047v3.5156c-0.58594-0.40625-1.1719-0.70312-1.7656-0.89062-0.59375-0.19531-1.2031-0.29688-1.8281-0.29688-1.2109 0-2.1484 0.35547-2.8125 1.0625-0.66797 0.69922-1 1.6797-1 2.9375 0 1.2617 0.33203 2.2422 1 2.9375 0.66406 0.69922 1.6016 1.0469 2.8125 1.0469 0.66406 0 1.3008-0.097656 1.9062-0.29688 0.61328-0.19531 1.1758-0.49219 1.6875-0.89062v3.5312c-0.67969 0.24219-1.3672 0.42188-2.0625 0.54688-0.6875 0.125-1.3828 0.1875-2.0781 0.1875-2.4297 0-4.3281-0.61719-5.7031-1.8594-1.3672-1.25-2.0469-2.9844-2.0469-5.2031s0.67969-3.9531 2.0469-5.2031c1.375-1.25 3.2734-1.875 5.7031-1.875 0.70703 0 1.3984 0.0625 2.0781 0.1875 0.6875 0.125 1.375 0.3125 2.0625 0.5625z"/>
  </symbol>
 </defs>
 <g>
  <path d="m98 61.793 219.35 217.7h66.973l-56.965 75.031-138.66-135.04 161.31 278.79 166.78-287.38-81.785-79.879 127.23-26.191 3.1406 20.305 36.629-63.332-238.89-0.0625 30.555 29.371-46.461 49.039-147.4-78.129zm360.31 17.754 55.469 14.242-33.496 4.3359z"/>
  <use x="103.796875" y="633.859375" xlink:href="#u"/>
  <use x="121.863281" y="633.859375" xlink:href="#d"/>
  <use x="134.007812" y="633.859375" xlink:href="#a"/>
  <use x="150.703125" y="633.859375" xlink:href="#k"/>
  <use x="167.320312" y="633.859375" xlink:href="#c"/>
  <use x="179.085938" y="633.859375" xlink:href="#a"/>
  <use x="195.785156" y="633.859375" xlink:href="#j"/>
  <use x="221.980469" y="633.859375" xlink:href="#i"/>
  <use x="239.605469" y="633.859375" xlink:href="#h"/>
  <use x="264.226562" y="633.859375" xlink:href="#g"/>
  <use x="282.992188" y="633.859375" xlink:href="#b"/>
  <use x="299.90625" y="633.859375" xlink:href="#f"/>
  <use x="317.433594" y="633.859375" xlink:href="#a"/>
  <use x="334.132812" y="633.859375" xlink:href="#t"/>
  <use x="351.753906" y="633.859375" xlink:href="#b"/>
  <use x="368.667969" y="633.859375" xlink:href="#s"/>
  <use x="377.109375" y="633.859375" xlink:href="#a"/>
  <use x="393.808594" y="633.859375" xlink:href="#e"/>
  <use x="103.796875" y="658.480469" xlink:href="#r"/>
  <use x="114.507813" y="658.480469" xlink:href="#d"/>
  <use x="126.648438" y="658.480469" xlink:href="#b"/>
  <use x="143.5625" y="658.480469" xlink:href="#e"/>
  <use x="177.789062" y="658.480469" xlink:href="#c"/>
  <use x="189.558594" y="658.480469" xlink:href="#q"/>
  <use x="207.085938" y="658.480469" xlink:href="#a"/>
  <use x="232.355469" y="658.480469" xlink:href="#p"/>
  <use x="252.960938" y="658.480469" xlink:href="#b"/>
  <use x="269.875" y="658.480469" xlink:href="#o"/>
  <use x="287.402344" y="658.480469" xlink:href="#f"/>
  <use x="313.503906" y="658.480469" xlink:href="#n"/>
  <use x="331.546875" y="658.480469" xlink:href="#d"/>
  <use x="343.6875" y="658.480469" xlink:href="#b"/>
  <use x="360.601562" y="658.480469" xlink:href="#m"/>
  <use x="369.042969" y="658.480469" xlink:href="#a"/>
  <use x="385.742188" y="658.480469" xlink:href="#l"/>
  <use x="400.335938" y="658.480469" xlink:href="#c"/>
 </g>
</svg>
